# xmcd
#
# Track frame offsets:
#	150
#	11449
#	22256
#	35999
#	49502
#	61398
#	77103
#	91664
#	104263
#	116053
#	127291
#	138805
#	153736
#	166599
#	176945
#	188860
#	200017
#	213787
#	226068
#	235957
#
# Disc length: 3271 seconds
#
# Revision: 3
# Processed by: cddbd v1.5.2PL0 Copyright (c) Steve Scherf et al.
# Submitted via: audiograbber 1.83.01
#
DISCID=140cc514
DTITLE=Porter Wagoner - The Definitive Collection ( Disc 2 )
DYEAR=2016
DGENRE=Country
TTITLE0=Y'all Come 
TTITLE1=Green, Green Grass Of Home
TTITLE2=Skid Row Joe
TTITLE3=Confessions Of A Broken Man
TTITLE4=I Just Came To Smell The Flowers
TTITLE5=Soul Of A Convict
TTITLE6=The Cold Hard Facts Of Life
TTITLE7=The First Mrs Jones
TTITLE8=Julie
TTITLE9=Woman Hungry
TTITLE10=Turn The Jukebox Up Louder
TTITLE11=Pastor's Absent On Vacation
TTITLE12=The Carroll County Accident
TTITLE13=Big Wind
TTITLE14=When You're Hot You're Hot
TTITLE15=You Got-Ta Have A License
TTITLE16=The Last One To Touch Me
TTITLE17=The Rubber Room
TTITLE18=What Ain't To Be, Just Might Happen
TTITLE19=Highway Headin' South
EXTD=when I grabbbed this CD Song 16 title is spelled wrong should be ( You Got
EXTD=Ta Have A License )
EXTT0=
EXTT1=
EXTT2=
EXTT3=
EXTT4=
EXTT5=
EXTT6=
EXTT7=
EXTT8=
EXTT9=
EXTT10=
EXTT11=
EXTT12=
EXTT13=
EXTT14=
EXTT15=
EXTT16=
EXTT17=
EXTT18=
EXTT19=
PLAYORDER=
